<svg width="60" height="60" viewBox="0 0 60 60" fill="none" xmlns="http://www.w3.org/2000/svg">
<circle cx="30" cy="30" r="30" fill="#191046"/>
<path d="M31.0729 24.5115C31.0729 24.511 31.0729 24.5106 31.0728 24.5102C31.0728 24.51 31.0728 24.5098 31.0728 24.5096L31.0729 24.5115Z" fill="white"/>
<path d="M39.9864 36.3572L39.4844 31.8712C39.3113 30.3452 39.3317 29.9321 38.9849 29.4102C38.3542 28.4608 37.3356 28.4718 35.7946 28.0421V27.9518H37.5512C37.9692 27.9518 38.3099 27.6143 38.315 27.1974L38.5465 23.2742C38.556 23.1126 38.4329 22.974 38.2713 22.9644C38.1093 22.9545 37.9711 23.0781 37.9616 23.2396C37.7201 27.336 37.7292 27.1705 37.7292 27.1878C37.7292 27.2843 37.6477 27.3658 37.5512 27.3658H35.7946V27.29C36.664 26.8202 37.3229 26.0283 37.5241 24.9984C37.6004 24.6296 37.581 24.3542 37.583 23.725C37.583 23.401 37.3294 23.1354 37.0056 23.1203C35.0027 23.0267 33.903 21.9461 33.5232 21.4857C33.4201 21.361 33.2684 21.2865 33.1068 21.2813C32.9446 21.2756 32.7891 21.3407 32.6784 21.4586C32.2955 21.8662 31.8784 22.0229 31.5959 22.0827C31.2912 22.1471 31.0701 22.4189 31.0701 22.729C31.0712 24.4599 31.0677 24.3766 31.0728 24.5103C31.0922 25 31.2275 25.4955 31.4179 25.8477C31.8152 26.636 32.3408 26.9758 32.8471 27.2844V27.3661C32.8191 27.3656 31.9312 27.3659 31.1314 27.3658C31.0349 27.3658 30.9534 27.2843 30.9534 27.1878C30.9534 27.1706 30.9632 27.3482 30.7175 23.1793C30.7171 23.174 30.7166 23.1686 30.716 23.1632C30.7126 23.1328 30.389 20.1147 32.0832 19.7423C32.1685 19.7235 32.24 19.6697 32.2798 19.592C32.3096 19.5362 33.0346 18.2316 35.3414 18.6808C35.3498 18.6825 35.3676 18.6883 35.3832 18.6934C36.9616 19.2088 37.8561 20.4809 37.9556 21.9101C37.9668 22.0715 38.1059 22.1932 38.2682 22.182C38.4295 22.1707 38.5512 22.0308 38.54 21.8694C38.4241 20.2039 37.3305 18.7211 35.645 18.1622C35.5609 18.1346 35.5033 18.1155 35.4533 18.1057C33.6374 17.7521 32.4036 18.3622 31.8341 19.2011C30.9698 19.4466 30.4035 20.2174 30.1929 21.4396C30.0424 22.3129 30.1225 23.1235 30.1331 23.2215L30.3677 27.1974C30.3728 27.6143 30.7135 27.9518 31.1315 27.9518C31.5139 27.9518 32.8207 27.952 32.8471 27.9516V28.0421C30.9743 28.5084 30.5392 28.5447 29.9977 29.0211C29.4062 28.5016 28.8808 28.4975 27.8617 28.2195L27.1493 27.8785V27.2838C28.2312 26.7238 28.925 25.6208 28.925 24.3827V24.3798C29.7262 24.2052 30.0985 23.3934 29.6629 22.7827C29.6708 21.5194 29.653 21.5202 29.5196 20.9329C28.8458 18.4873 26.5157 18.0931 26.5117 18.091C24.0707 17.566 21.7788 19.3794 21.6779 21.8238C21.6777 21.8293 21.6739 21.9112 21.6739 21.9965C21.6739 22.1671 21.6738 22.7666 21.674 22.7826C21.5573 22.9461 21.4896 23.1391 21.4896 23.3458C21.4896 23.8448 21.883 24.2645 22.412 24.3797C22.419 24.4067 22.2976 26.2733 24.1802 27.28L24.2017 27.2362V27.2453L24.1844 27.2821C24.1883 27.284 24.1995 27.2895 24.2017 27.2906L24.2017 27.8716L23.46 28.2267C22.2878 28.5186 21.8454 28.5649 21.3138 29.0559C20.8926 29.4461 20.7407 29.8745 20.6747 30.4172C19.9833 36.6714 19.9966 36.3115 20.0008 36.601C19.992 37.349 20.5141 37.9998 21.3776 37.9998H23.743C23.9048 37.9998 24.0359 37.8687 24.0359 37.7069C24.0359 37.545 23.9048 37.4139 23.743 37.4139H22.8376L23.1281 31.919C23.1366 31.7575 23.0126 31.6196 22.851 31.611C22.69 31.6014 22.5516 31.7265 22.543 31.8881L22.4819 33.0439L20.9878 32.8871L21.0039 32.7431C21.3042 30.113 21.1972 29.8828 21.8731 29.3548C22.2278 29.0772 22.8017 29.013 23.4635 28.8297L24.364 29.9827C24.5795 30.2584 24.9885 30.2828 25.2351 30.0342L25.3755 29.8927V31.3104C25.3755 31.4722 25.5066 31.6034 25.6685 31.6034C25.8303 31.6034 25.9614 31.4723 25.9614 31.3104V29.8927C26.0403 29.9523 26.1998 30.2261 26.5489 30.2052C26.7156 30.1953 26.8701 30.1142 26.9729 29.9826L27.8746 28.8283C28.6582 29.0452 29.1575 29.0597 29.6169 29.4713C29.2602 30.0551 29.3457 30.4718 29.0282 33.0257L28.881 33.0412L28.82 31.8882C28.8114 31.7266 28.6734 31.6014 28.512 31.611C28.3505 31.6196 28.2264 31.7575 28.235 31.9191C28.2644 32.4897 28.4871 36.8134 28.5181 37.4139H25.1099C24.9481 37.4139 24.8169 37.545 24.8169 37.7069C24.8169 37.8688 24.948 37.9999 25.1099 37.9999C25.5342 37.9999 32.0015 37.9999 32.43 37.9999C32.5918 37.9999 32.7229 37.8688 32.7229 37.7069C32.7229 37.545 32.5918 37.4139 32.43 37.4139H31.4826L31.7731 31.9191C31.7817 31.7575 31.6576 31.6196 31.496 31.611C31.3354 31.6014 31.1966 31.7265 31.1881 31.8882L31.127 33.0431L29.6332 32.8864C29.9197 30.3355 29.8858 30.0404 30.2212 29.6296C30.6582 29.1086 31.2946 29.0454 31.3773 29.012C31.4231 29.9545 31.6978 30.9414 32.642 30.9414C33.2904 30.9414 33.9757 30.4288 34.3202 30.13C35.8579 31.464 37.1568 31.2009 37.2632 29.0117C37.3454 29.0386 37.6725 29.0808 38.0203 29.2892C38.4434 29.5433 38.6431 29.8755 38.7201 30.3469C38.7487 30.5299 38.725 30.3694 39.0085 32.8865L37.526 33.0421L37.4651 31.8883C37.4565 31.7266 37.3169 31.6016 37.1571 31.6112C36.9955 31.6197 36.8715 31.7576 36.88 31.9192L37.1705 37.414H33.7969C33.6351 37.414 33.504 37.5452 33.504 37.707C33.504 37.8689 33.6351 38 33.7969 38H38.6188C39.5462 37.9999 40.0951 37.2544 39.9864 36.3572ZM22.433 33.6279L22.2429 37.4139C21.5499 37.3765 21.1255 37.5214 20.8149 37.2066C20.6102 36.9991 20.5682 36.7101 20.5927 36.4184L20.9227 33.4693L22.433 33.6279ZM28.925 23.7681V22.9234C29.3724 23.108 29.3724 23.5835 28.925 23.7681ZM22.412 23.7681C21.9644 23.5836 21.9643 23.1079 22.412 22.9233V23.7681ZM22.6894 22.2666C22.6853 22.2691 22.6862 22.2685 22.6651 22.2812C22.5224 22.2852 22.3859 22.3109 22.2597 22.3547C22.2921 22.1558 22.0664 20.9185 23.1222 19.7302C23.5104 19.3055 23.9582 18.9869 24.5227 18.7848C24.532 18.7844 26.6359 17.9372 28.2807 19.8065C29.264 20.9785 29.0479 22.2223 29.0771 22.3547C28.9509 22.311 28.8144 22.2853 28.6718 22.2812C28.3887 22.1189 28.2535 21.8186 28.2419 21.489C28.2394 21.4788 28.2551 21.1721 27.9857 20.9473C27.6572 20.6731 27.371 20.811 26.7741 20.8702C25.2002 21.0227 24.0946 20.8021 23.9225 20.7889C23.514 20.7253 23.1085 21.0201 23.0951 21.4893C23.0737 22.0735 22.6874 22.268 22.6894 22.2666ZM22.9978 24.1182V22.7648C23.197 22.6072 23.4183 22.4774 23.5834 22.0333C23.6465 21.8607 23.6761 21.6737 23.6816 21.4893C23.6835 21.4132 23.7547 21.3557 23.8325 21.3679C24.6038 21.4688 25.1108 21.5197 25.8005 21.5115L25.8442 21.5108C28.2049 21.475 27.398 20.9932 27.7451 22.0099C27.8791 22.4056 28.1493 22.6239 28.1269 22.6025C28.2372 22.7052 28.3321 22.7598 28.3389 22.7647C28.3389 22.8188 28.3391 24.3277 28.3391 24.3826C28.3391 25.7701 27.2747 26.946 25.8471 27.0469C25.0503 27.0997 24.4969 26.7801 24.4472 26.7584L24.4152 26.8229C24.4139 26.8232 24.4127 26.8236 24.4114 26.8239L24.4436 26.7567C24.4042 26.734 24.3464 26.7086 24.221 26.6272C22.8172 25.7204 23.0137 24.1954 22.9978 24.1182ZM24.8227 29.6181L24.034 28.6083L24.4308 28.4184L25.2488 29.1887L24.8227 29.6181ZM25.6685 28.7791L24.7876 27.9497V27.5184C25.3606 27.6788 25.9702 27.6814 26.5564 27.5164V27.943L25.6685 28.7791ZM26.5142 29.6181L26.0882 29.1887L26.9109 28.4139L27.3067 28.6034L26.5142 29.6181ZM31.0855 33.6279L30.8953 37.4139C29.9662 37.4129 29.9394 37.4218 29.798 37.3891C29.4383 37.3061 29.2396 36.9901 29.2321 36.6209C29.2308 36.3372 29.2212 36.6494 29.5682 33.4686L31.0855 33.6279ZM32.087 25.8382C31.8373 25.4227 31.656 25.0074 31.656 24.3826V22.729C31.656 22.6936 31.6811 22.6635 31.7171 22.6559C32.0773 22.5797 32.6055 22.3829 33.0877 21.8784C33.5318 22.4094 34.7691 23.6024 36.9783 23.7056C36.9889 23.7061 36.9972 23.7147 36.9972 23.725C36.9964 24.3118 37.0296 24.6721 36.8838 25.1555C36.5217 26.357 35.4642 26.7995 35.5478 26.7585L35.5222 26.7712C35.393 26.8363 35.4405 26.8056 35.3835 26.8307C34.8639 27.0625 34.339 27.0516 34.3222 27.0534C34.308 27.0494 32.921 27.1198 32.087 25.8382ZM35.5444 28.5836C35.5441 28.5835 35.5439 28.5834 35.5436 28.5834C35.5439 28.5834 35.5441 28.5835 35.5444 28.5836ZM32.4555 30.3211C32.1566 30.1967 31.9822 29.6838 31.9578 28.8673L32.0904 28.8343C32.4732 29.3822 33.0156 29.7644 33.6283 29.9284C33.239 30.2061 32.7596 30.4476 32.4555 30.3211ZM32.7213 28.6772C33.1103 28.5788 33.1093 28.5842 33.1515 28.5651C33.3225 28.4877 33.433 28.2905 33.433 28.0629V27.5147C33.975 27.6713 34.578 27.6884 35.2087 27.5179V28.0629C35.2087 28.3407 35.3701 28.5398 35.5403 28.5825C35.5441 28.5834 35.5457 28.5838 35.546 28.584C35.5658 28.5889 35.6453 28.6087 35.9194 28.6769C35.059 29.6827 33.5812 29.6833 32.7213 28.6772ZM36.1854 30.3209C35.8448 30.4631 35.3089 30.1427 35.0091 29.9262C35.6467 29.7533 36.1785 29.3504 36.5399 28.8315C36.5438 28.8325 36.6918 28.8693 36.6827 28.867C36.6584 29.6833 36.4842 30.1963 36.1854 30.3209ZM39.1814 37.2066C38.8709 37.5214 38.4488 37.3764 37.7571 37.4139L37.557 33.6278L39.0736 33.4686C39.4306 36.719 39.4037 36.2911 39.4097 36.6083C39.4117 36.784 39.3528 37.0329 39.1814 37.2066Z" fill="white"/>
</svg>
