<svg width="60" height="60" viewBox="0 0 60 60" fill="none" xmlns="http://www.w3.org/2000/svg">
<circle cx="30" cy="30" r="30" fill="#5C4EF7"/>
<g clip-path="url(#clip0_8_45)">
<path fill-rule="evenodd" clip-rule="evenodd" d="M34.293 20.3125C36.72 20.3125 38.6875 22.28 38.6875 24.707C38.6875 27.134 36.72 29.1016 34.293 29.1016C31.866 29.1016 29.8984 27.134 29.8984 24.707C29.8984 22.28 31.866 20.3125 34.293 20.3125ZM27.2746 31.7254C26.4142 30.8666 25.6517 29.916 25.0035 28.8911C24.7668 28.5168 24.7693 28.067 25.01 27.6954L25.935 26.2672C26.1323 25.9624 26.17 25.6146 26.0424 25.2747L24.4513 21.0341C24.2022 20.37 23.4136 20.1072 22.8158 20.4891C22.076 20.9618 21.336 21.4346 20.5961 21.9073C19.5831 22.5546 19.1128 23.7181 19.3918 24.8874C20.2507 28.4865 22.124 31.7254 24.7131 34.2869C27.2746 36.8761 30.5135 38.7493 34.1125 39.6082C35.2819 39.8872 36.4454 39.4169 37.0926 38.4039C37.5654 37.6641 38.0381 36.924 38.5109 36.1842C38.8928 35.5864 38.63 34.7978 37.9659 34.5487L33.7253 32.9576C33.3854 32.83 33.0376 32.8677 32.7328 33.065L31.3046 33.99C30.933 34.2307 30.4833 34.2332 30.1089 33.9965C29.084 33.3483 28.1334 32.5857 27.2746 31.7254V31.7254ZM31.7137 26.3357L35.9216 22.1278C35.4342 21.8192 34.8722 21.6568 34.293 21.6568C32.6084 21.6568 31.2428 23.0224 31.2428 24.707C31.2428 25.2863 31.4051 25.8483 31.7137 26.3357ZM36.8722 23.0784L32.6643 27.2863C33.1517 27.5949 33.7138 27.7572 34.293 27.7572C35.9776 27.7572 37.3432 26.3916 37.3432 24.707C37.3432 24.1279 37.1809 23.5657 36.8722 23.0784Z" fill="white"/>
</g>
<defs>
<clipPath id="clip0_8_45">
<rect width="20" height="20" fill="white" transform="translate(19 20)"/>
</clipPath>
</defs>
</svg>
