<svg width="60" height="60" viewBox="0 0 60 60" fill="none" xmlns="http://www.w3.org/2000/svg">
<circle cx="30" cy="30" r="30" fill="#F7954E"/>
<path d="M38.766 31.2C38.682 31.2 38.616 31.266 38.616 31.35V31.626C38.616 31.71 38.682 31.776 38.766 31.776C38.85 31.776 38.916 31.71 38.916 31.626V31.35C38.916 31.266 38.85 31.2 38.766 31.2Z" fill="white"/>
<path d="M38.766 32.7C38.682 32.7 38.616 32.766 38.616 32.85V33.126C38.616 33.21 38.682 33.276 38.766 33.276C38.85 33.276 38.916 33.21 38.916 33.126V32.85C38.916 32.766 38.85 32.7 38.766 32.7Z" fill="white"/>
<path d="M38.766 35.7C38.682 35.7 38.616 35.766 38.616 35.85V36.126C38.616 36.21 38.682 36.276 38.766 36.276C38.85 36.276 38.916 36.21 38.916 36.126V35.85C38.916 35.766 38.85 35.7 38.766 35.7Z" fill="white"/>
<path d="M38.766 34.2C38.682 34.2 38.616 34.266 38.616 34.35V34.626C38.616 34.71 38.682 34.776 38.766 34.776C38.85 34.776 38.916 34.71 38.916 34.626V34.35C38.916 34.266 38.85 34.2 38.766 34.2Z" fill="white"/>
<path d="M43.1909 30.234C43.1909 29.685 42.8369 29.208 42.3119 29.046L41.4299 28.776C42.9029 27.906 42.7499 26.994 42.6809 26.313C42.6269 25.785 42.5489 24.222 42.5489 24.198C42.3209 21.792 41.5829 20.097 40.3619 19.161C39.4079 18.432 38.4389 18.384 38.0189 18.405C37.5989 18.384 36.6269 18.429 35.6699 19.161C34.4489 20.097 33.7109 21.792 33.4829 24.207C33.4829 24.222 33.4049 25.785 33.3509 26.31C33.2849 26.961 33.1439 27.84 34.5689 28.743L34.3709 28.809L30.0269 27.39V26.304C30.8009 25.746 31.3319 24.873 31.4249 23.862C31.9079 23.811 32.2859 23.406 32.2859 22.911C32.2859 22.506 32.0339 22.158 31.6769 22.017L31.6829 21.681C31.6979 20.676 31.3199 19.731 30.6149 19.014C29.9099 18.297 28.9709 17.904 27.9659 17.904C25.9169 17.904 24.2489 19.572 24.2489 21.621V22.086V22.089C23.9699 22.257 23.7809 22.56 23.7809 22.911C23.7809 23.409 24.1619 23.814 24.6449 23.862C24.7409 24.87 25.2689 25.746 26.0429 26.304V27.381L23.9999 28.056V27.237C23.9999 26.526 23.6069 26.25 23.4269 26.163C23.2799 25.599 22.7249 25.437 22.4369 25.431H20.1359C18.2939 25.431 18.2099 26.784 18.1829 27.228C18.1589 27.627 18.1799 28.779 18.1829 28.836C17.9669 28.974 17.8199 29.217 17.8199 29.493C17.8199 29.886 18.1139 30.207 18.4919 30.261C18.5729 31.035 18.9809 31.704 19.5719 32.139V32.931L17.5289 33.558C17.0879 33.693 16.7939 34.092 16.7939 34.554V37.26C16.7939 37.344 16.8599 37.41 16.9439 37.41H17.0999L17.0939 40.299C17.0939 40.383 17.1599 40.449 17.2439 40.449C17.3279 40.449 17.3939 40.383 17.3939 40.299L17.3999 37.41H18.4739V40.299C18.4739 40.383 18.5399 40.449 18.6239 40.449C18.7079 40.449 18.7739 40.383 18.7739 40.299V35.967C18.7739 35.94 18.7649 35.913 18.7529 35.889L18.2009 34.989C18.1559 34.917 18.0659 34.896 17.9939 34.941C17.9219 34.983 17.9009 35.076 17.9459 35.148L18.4769 36.012V37.11H17.0969V34.554C17.0969 34.227 17.3069 33.942 17.6219 33.846L19.5959 33.24C19.6949 34.014 20.3489 34.617 21.1499 34.617C21.9509 34.617 22.6079 34.014 22.7039 33.24L24.6659 33.846C24.9779 33.942 25.1909 34.227 25.1909 34.554V37.11H23.8109V36.012L24.3419 35.148C24.3839 35.076 24.3629 34.986 24.2939 34.941C24.2219 34.899 24.1319 34.92 24.0869 34.989L23.5349 35.889C23.5199 35.913 23.5139 35.94 23.5139 35.967V40.296C23.5139 40.38 23.5799 40.446 23.6639 40.446C23.7479 40.446 23.8139 40.38 23.8139 40.296V37.407H24.8999L24.8939 40.296C24.8939 40.38 24.9599 40.446 25.0439 40.446C25.1279 40.446 25.1939 40.38 25.1939 40.296L25.1999 37.407H25.3439C25.4279 37.407 25.4939 37.341 25.4939 37.257V34.551C25.4939 34.092 25.1969 33.69 24.7589 33.555L22.7279 32.928V32.136C23.3219 31.704 23.7269 31.032 23.8079 30.258C24.1859 30.204 24.4769 29.883 24.4769 29.49C24.4769 29.169 24.2819 28.893 24.0059 28.773V28.368L25.9889 27.711L25.5629 29.319C25.5509 29.364 25.5599 29.412 25.5899 29.451C25.6169 29.487 25.6619 29.508 25.7069 29.508H25.7099L27.8939 29.481V39.258C27.8939 39.342 27.9599 39.408 28.0439 39.408C28.1279 39.408 28.1939 39.342 28.1939 39.258V29.484L30.4919 29.514H30.4949C30.5429 29.514 30.5879 29.49 30.6149 29.454C30.6449 29.415 30.6509 29.364 30.6359 29.319L30.1199 27.735L33.8939 28.968L33.7259 29.022C33.1859 29.199 32.5619 29.505 32.5619 30.312V30.513H31.8029C30.1859 30.513 30.1109 31.704 30.0869 32.094C30.0659 32.427 30.0839 33.363 30.0869 33.48C29.8979 33.606 29.7719 33.819 29.7719 34.062C29.7719 34.407 30.0269 34.695 30.3569 34.746C30.4319 35.415 30.7829 35.991 31.2929 36.369V37.032L29.5319 37.572C29.1419 37.692 28.8779 38.046 28.8779 38.454V40.803C28.8779 40.887 28.9439 40.953 29.0279 40.953H29.1419L29.1359 41.943C29.1359 42.027 29.2019 42.093 29.2859 42.093C29.3669 42.093 29.4359 42.027 29.4359 41.943L29.4419 40.953H30.3359V41.943C30.3359 42.027 30.4019 42.093 30.4859 42.093C30.5699 42.093 30.6359 42.027 30.6359 41.943V39.684C30.6359 39.657 30.6269 39.63 30.6149 39.606L30.1349 38.823C30.0899 38.751 29.9999 38.73 29.9279 38.775C29.8559 38.817 29.8349 38.91 29.8799 38.982L30.3389 39.729V40.656H29.2949H29.1779V38.457C29.1779 38.181 29.3549 37.941 29.6189 37.86L31.3109 37.341C31.4069 38.013 31.9799 38.532 32.6789 38.532C33.3779 38.532 33.9509 38.013 34.0469 37.341L35.7299 37.86C35.9939 37.941 36.1709 38.181 36.1709 38.457V40.656H36.0659H35.0099V39.729L35.4689 38.982C35.5109 38.91 35.4899 38.82 35.4209 38.775C35.3519 38.73 35.2589 38.754 35.2139 38.823L34.7339 39.606C34.7189 39.63 34.7129 39.657 34.7129 39.684V41.943C34.7129 42.027 34.7789 42.093 34.8629 42.093C34.9469 42.093 35.0129 42.027 35.0129 41.943V40.953H35.9189L35.9129 41.943C35.9129 42.027 35.9789 42.093 36.0629 42.093C36.1439 42.093 36.2129 42.027 36.2129 41.943L36.2189 40.953H36.3239C36.4079 40.953 36.4739 40.887 36.4739 40.803V38.454C36.4739 38.046 36.2099 37.689 35.8199 37.572L34.0709 37.032V36.369C34.5809 35.991 34.9349 35.415 35.0069 34.746C35.3369 34.692 35.5919 34.407 35.5919 34.062C35.5919 33.78 35.4239 33.537 35.1809 33.429V32.103C35.1809 31.488 34.8449 31.239 34.6799 31.155C34.5449 30.66 34.0559 30.516 33.8039 30.513H32.8619V30.312C32.8619 29.82 33.1379 29.529 33.8189 29.307L36.1109 28.557L37.7429 30.189L37.7459 39.273C37.7459 39.357 37.8119 39.423 37.8959 39.423C37.9799 39.423 38.0459 39.357 38.0459 39.273L38.0399 30.189L39.6779 28.551L42.2249 29.331C42.6239 29.454 42.8909 29.814 42.8909 30.24L42.9089 30.534L42.8789 39.264C42.8789 39.345 42.9479 39.414 43.0289 39.414C43.1129 39.414 43.1789 39.345 43.1789 39.264L43.2059 30.528L43.1909 30.234ZM22.4219 33.042C22.4219 33.744 21.8489 34.317 21.1469 34.317C20.4449 34.317 19.8719 33.744 19.8719 33.042V32.328C20.2529 32.535 20.6849 32.652 21.1469 32.652C21.6089 32.652 22.0409 32.532 22.4219 32.328V33.042ZM24.1709 29.493C24.1709 29.757 23.9549 29.958 23.6909 29.973C23.5619 29.979 23.5199 30.03 23.5139 30.114C23.4449 31.371 22.4039 32.355 21.1439 32.355C19.8839 32.355 18.8429 31.371 18.7739 30.114C18.7679 30.03 18.7199 29.967 18.5939 29.973C18.3299 29.985 18.1139 29.757 18.1139 29.493C18.1139 29.229 18.3299 29.04 18.5939 29.013C18.7919 28.992 19.1219 29.037 19.2089 29.046C19.2749 29.052 19.3319 29.004 19.3529 28.941L19.5779 28.227C21.4499 28.248 22.8239 27.603 22.8839 27.573C22.9589 27.537 22.9889 27.447 22.9529 27.372C22.9169 27.297 22.8269 27.267 22.7519 27.303C22.7369 27.309 21.3299 27.978 19.4729 27.924C19.4009 27.927 19.3469 27.966 19.3259 28.029L19.1039 28.737L18.4769 28.692C18.4709 28.368 18.4589 27.552 18.4799 27.246C18.5249 26.541 18.7499 25.728 20.1329 25.728H22.4309C22.4549 25.728 23.0489 25.752 23.1479 26.295C23.1569 26.349 23.1989 26.394 23.2499 26.412C23.2679 26.418 23.6969 26.568 23.6969 27.237V28.713C23.6939 28.713 23.6939 28.713 23.6909 28.713H23.1599C23.0759 28.713 23.0099 28.779 23.0099 28.863C23.0099 28.947 23.0759 29.013 23.1599 29.013H23.6939C23.9579 29.013 24.1709 29.229 24.1709 29.493V29.493ZM24.9329 23.712C24.9299 23.628 24.8729 23.568 24.7469 23.571C24.3809 23.58 24.0839 23.274 24.0839 22.908C24.0839 22.542 24.3809 22.245 24.7469 22.245C24.8309 22.245 24.8969 22.179 24.8969 22.095C24.8969 22.011 24.8309 21.945 24.7469 21.945C24.6809 21.945 24.6149 21.951 24.5549 21.966V21.618C24.5549 19.734 26.0879 18.201 27.9719 18.201C28.8959 18.201 29.7599 18.564 30.4079 19.221C31.0559 19.878 31.4039 20.751 31.3889 21.672L31.3859 21.948C31.3679 21.948 31.3499 21.942 31.3319 21.942H31.1579C31.0739 21.942 31.0079 22.008 31.0079 22.092C31.0079 22.176 31.0739 22.242 31.1579 22.242H31.3319C31.6979 22.242 31.9949 22.539 31.9949 22.905C31.9949 23.271 31.6979 23.565 31.3319 23.568C31.2029 23.568 31.1519 23.625 31.1459 23.709C31.0559 25.356 29.6939 26.646 28.0409 26.646C26.3849 26.649 25.0229 25.359 24.9329 23.712V23.712ZM25.8959 29.208L26.2739 27.78L27.6779 29.184L25.8959 29.208ZM28.0349 29.121L26.3459 27.432V26.499C26.8439 26.784 27.4229 26.952 28.0349 26.952C28.6499 26.952 29.2259 26.787 29.7239 26.499V27.432V27.435L28.0349 29.121ZM30.2789 29.208L28.3949 29.184L29.8079 27.771L30.2789 29.208ZM33.7649 37.143C33.7649 37.743 33.2759 38.232 32.6759 38.232C32.0759 38.232 31.5869 37.743 31.5869 37.143V36.558C31.9139 36.729 32.2829 36.825 32.6759 36.825C33.0689 36.825 33.4379 36.729 33.7649 36.558V37.143ZM34.3979 31.29C34.4069 31.344 34.4489 31.389 34.4999 31.407C34.5149 31.413 34.8749 31.539 34.8749 32.103V33.366H34.4249C34.3409 33.366 34.2749 33.432 34.2749 33.516C34.2749 33.6 34.3409 33.666 34.4249 33.666H34.8899C35.1089 33.666 35.2859 33.843 35.2859 34.062C35.2859 34.281 35.1089 34.467 34.8899 34.458C34.7729 34.452 34.7219 34.515 34.7159 34.599C34.6559 35.682 33.7619 36.528 32.6759 36.528C31.5899 36.528 30.6959 35.679 30.6359 34.599C30.6299 34.515 30.5609 34.446 30.4619 34.458C30.2459 34.485 30.0659 34.281 30.0659 34.062C30.0659 33.843 30.2459 33.693 30.4619 33.666C30.6179 33.645 30.9089 33.684 30.9959 33.693C31.0619 33.699 31.1189 33.651 31.1399 33.588L31.3289 32.982C32.9519 33 34.1429 32.436 34.1939 32.412C34.2689 32.376 34.2989 32.286 34.2629 32.211C34.2269 32.136 34.1369 32.106 34.0619 32.142C34.0499 32.148 32.8259 32.727 31.2209 32.679C31.1459 32.676 31.0949 32.721 31.0739 32.784L30.8849 33.384L30.3749 33.348C30.3689 33.054 30.3599 32.373 30.3779 32.112C30.4139 31.506 30.6089 30.813 31.7939 30.813H33.7889C33.8159 30.813 34.3139 30.834 34.3979 31.29ZM39.4859 28.32L37.8899 29.916L36.2939 28.32V27.45C36.7679 27.717 37.3109 27.873 37.8899 27.873C38.4689 27.873 39.0149 27.717 39.4859 27.45V28.32ZM37.8899 27.573C36.3269 27.573 35.0369 26.352 34.9529 24.801V23.61C35.8349 23.247 36.2609 22.446 36.4259 22.044C36.8699 22.443 38.1869 23.364 40.8509 23.376L40.8299 24.792C40.7429 26.352 39.4529 27.573 37.8899 27.573V27.573ZM39.7859 28.272V27.258C40.5539 26.703 41.0729 25.821 41.1269 24.804C41.1269 24.804 41.0879 23.646 41.1509 23.232C41.1569 23.187 41.1029 23.076 41.0009 23.079C37.7099 23.16 36.4889 21.69 36.4769 21.678C36.4409 21.636 36.3839 21.615 36.3299 21.627C36.2759 21.639 36.2309 21.678 36.2159 21.732C36.2129 21.744 35.8589 22.992 34.7519 23.373C34.6769 23.4 34.6529 23.463 34.6529 23.514V24.81C34.7069 25.821 35.2259 26.703 35.9939 27.258V28.278L34.9259 28.626C34.9139 28.608 34.8989 28.593 34.8779 28.581C33.4559 27.744 33.5849 27.006 33.6509 26.349C33.7049 25.818 33.7829 24.276 33.7859 24.225C34.0049 21.909 34.7009 20.286 35.8499 19.401C36.5729 18.846 37.3169 18.72 37.7669 18.702C37.7939 18.714 37.8239 18.723 37.8569 18.717C37.8599 18.717 37.9169 18.708 38.0159 18.702C38.1209 18.708 38.1839 18.717 38.1869 18.717C38.2199 18.723 38.2499 18.714 38.2769 18.702C38.7239 18.72 39.4619 18.843 40.1849 19.395C41.3369 20.277 42.0359 21.903 42.2549 24.213C42.2579 24.276 42.3359 25.818 42.3899 26.349C42.4619 27.048 42.5939 27.834 41.0339 28.647L39.7859 28.272Z" fill="white"/>
<path d="M41.1839 31.761C41.0999 31.761 41.0339 31.827 41.0339 31.911V39.264C41.0339 39.348 41.0999 39.414 41.1839 39.414C41.2679 39.414 41.3339 39.348 41.3339 39.264V31.911C41.3339 31.83 41.2649 31.761 41.1839 31.761V31.761Z" fill="white"/>
</svg>
