<svg width="60" height="60" viewBox="0 0 60 60" fill="none" xmlns="http://www.w3.org/2000/svg">
<circle cx="30" cy="30" r="30" fill="#FF1FB3"/>
<path d="M29.5399 15C24.2737 15 19.9893 19.2844 19.9893 24.5507V38.4688C19.9893 39.7618 20.3644 41.0086 21.074 42.0743C21.2085 42.2763 21.4813 42.3309 21.6834 42.1965C21.8854 42.0619 21.9401 41.7891 21.8055 41.5871C21.1923 40.6662 20.8681 39.5879 20.8681 38.4688V24.5507C20.8682 19.7691 24.7583 15.8789 29.5399 15.8789C34.3215 15.8789 38.2116 19.7691 38.2116 24.5507C38.2116 29.0914 36.5079 31.372 34.7041 33.7866C33.4755 35.4313 32.2051 37.1319 31.5125 39.5766C31.0461 41.2232 30.4256 42.3755 29.6157 43.0991C28.8353 43.7964 27.871 44.1211 26.5809 44.1211C25.3118 44.1211 24.1124 43.7231 23.1122 42.9703C22.9182 42.8244 22.6429 42.8632 22.4968 43.0571C22.3509 43.251 22.3897 43.5265 22.5836 43.6725C23.7373 44.5409 25.1196 45 26.5809 45C29.5608 45 31.3426 43.4012 32.3582 39.8161C33.0064 37.5278 34.1731 35.9661 35.4083 34.3126C37.2186 31.8893 39.0906 29.3834 39.0906 24.5506C39.0905 19.2844 34.8062 15 29.5399 15Z" fill="white"/>
<path d="M33.1033 20.2136C31.9801 19.3166 30.5702 18.8227 29.1334 18.8227C25.6199 18.8227 22.7615 21.6811 22.7615 25.1946C22.7615 25.4373 22.9582 25.6341 23.2009 25.6341C23.4436 25.6341 23.6404 25.4373 23.6404 25.1946C23.6404 24.2913 23.8597 23.4383 24.2476 22.6858C25.2077 22.0542 27.338 22.1814 28.87 23.322C30.9827 24.8948 30.5212 27.24 30.058 28.498C29.9742 28.7257 30.0908 28.9783 30.3186 29.0622C30.3687 29.0806 30.42 29.0894 30.4704 29.0894C30.6492 29.0894 30.8174 28.9793 30.8828 28.8016C31.3835 27.4416 31.4708 26.1863 31.1421 25.0705C30.8577 24.1046 30.2534 23.2561 29.3949 22.6169C28.1374 21.6807 26.45 21.2746 25.0957 21.4745C26.1001 20.3852 27.5384 19.7015 29.1334 19.7015C30.3896 19.7015 31.5727 20.1161 32.5549 20.9004C33.5086 21.6619 34.1902 22.7296 34.474 23.9066C34.5309 24.1426 34.7683 24.2878 35.0042 24.2308C35.2401 24.1739 35.3853 23.9366 35.3284 23.7006C34.999 22.3347 34.2088 21.0964 33.1033 20.2136Z" fill="white"/>
<path d="M24.2248 35.8937C24.6417 37.1195 25.652 37.9506 26.9273 38.1167C27.1053 38.1399 27.2783 38.1515 27.4467 38.1515C28.3061 38.1515 29.044 37.8485 29.6903 37.2327C30.3276 36.6255 30.7751 35.8002 31.1698 35.0721C31.3664 34.7093 31.5523 34.3667 31.7439 34.08C31.7459 34.077 31.7479 34.0739 31.7498 34.0708C32.049 33.5982 32.3721 33.1303 32.685 32.6772C34.046 30.7067 35.3315 28.8454 35.4895 25.8137C35.5021 25.5714 35.3158 25.3646 35.0734 25.352C34.8316 25.3396 34.6243 25.5256 34.6117 25.768C34.4667 28.551 33.2499 30.3126 31.9614 32.1784C31.6449 32.6366 31.3178 33.1103 31.0101 33.5962C30.797 33.9155 30.6027 34.2739 30.3971 34.6532C29.643 36.0442 28.8639 37.4827 27.0409 37.2452C26.1052 37.1232 25.3635 36.5121 25.0568 35.6106C24.7411 34.6825 24.9557 33.6952 25.6168 33.0341C26.0731 32.5779 26.3243 31.9713 26.3243 31.3261C26.3243 29.9942 25.2408 28.9106 23.9088 28.9106C23.6661 28.9106 23.4694 29.1074 23.4694 29.3501C23.4694 29.5928 23.6661 29.7895 23.9088 29.7895C24.7561 29.7895 25.4454 30.4788 25.4454 31.3261C25.4454 31.7366 25.2856 32.1224 24.9954 32.4127C24.0957 33.3124 23.8004 34.6462 24.2248 35.8937Z" fill="white"/>
<path d="M40.0225 31.5196C40.0225 29.5631 40.7844 27.7237 42.1678 26.3402C42.3394 26.1686 42.3394 25.8904 42.1678 25.7187C41.9962 25.5471 41.7179 25.5471 41.5463 25.7187C39.9969 27.2682 39.1436 29.3284 39.1436 31.5195C39.1436 33.7108 39.9969 35.7709 41.5463 37.3204C41.6321 37.4061 41.7446 37.4491 41.857 37.4491C41.9695 37.4491 42.082 37.4062 42.1678 37.3204C42.3394 37.1487 42.3394 36.8705 42.1678 36.6989C40.7843 35.3155 40.0225 33.4761 40.0225 31.5196Z" fill="white"/>
<path d="M45.274 31.5196C45.274 30.9669 45.4899 30.4466 45.882 30.0544C46.0536 29.8828 46.0536 29.6046 45.882 29.433C45.7104 29.2613 45.4321 29.2614 45.2605 29.433C44.7024 29.991 44.395 30.7321 44.395 31.5196C44.395 32.3071 44.7024 33.0482 45.2605 33.6063C45.3463 33.6921 45.4588 33.735 45.5712 33.735C45.6837 33.735 45.7962 33.6921 45.882 33.6063C46.0536 33.4346 46.0536 33.1563 45.882 32.9848C45.4899 32.5927 45.274 32.0723 45.274 31.5196Z" fill="white"/>
<path d="M44.0263 27.5771C43.8546 27.4055 43.5764 27.4055 43.4048 27.5771C42.3501 28.6317 41.7693 30.0319 41.7693 31.5195C41.7693 33.0072 42.3501 34.4073 43.4048 35.4619C43.4905 35.5477 43.603 35.5907 43.7155 35.5907C43.828 35.5907 43.9404 35.5477 44.0262 35.4619C44.1978 35.2903 44.1978 35.012 44.0262 34.8404C43.1376 33.9518 42.6482 32.7724 42.6482 31.5194C42.6482 30.2665 43.1376 29.0871 44.0262 28.1985C44.1979 28.027 44.1979 27.7487 44.0263 27.5771Z" fill="white"/>
</svg>
