<svg width="60" height="60" viewBox="0 0 60 60" fill="none" xmlns="http://www.w3.org/2000/svg">
<circle cx="30" cy="30" r="30" fill="#1F7CFF"/>
<g clip-path="url(#clip0_8_32)">
<g clip-path="url(#clip1_8_32)">
<path d="M30.7988 20.0449C27.9557 20.0449 25.6426 22.3579 25.6426 25.2011C25.6426 28.0443 27.9557 30.3574 30.7988 30.3574C33.642 30.3574 35.9551 28.0443 35.9551 25.2011C35.9551 22.3579 33.642 20.0449 30.7988 20.0449V20.0449ZM30.7988 20.8261C33.2112 20.8261 35.1738 22.7887 35.1738 25.2011C35.1738 27.6135 33.2112 29.5761 30.7988 29.5761C28.3864 29.5761 26.4238 27.6135 26.4238 25.2011C26.4238 22.7887 28.3865 20.8261 30.7988 20.8261Z" fill="white"/>
<path d="M33.1796 22.8205C33.3321 22.973 33.3321 23.2203 33.1796 23.3729C33.027 23.5254 32.7797 23.5254 32.6272 23.3728C32.1388 22.8845 31.4895 22.6155 30.7989 22.6155C30.1083 22.6155 29.459 22.8845 28.9707 23.3728C28.8944 23.4491 28.7944 23.4873 28.6945 23.4873C28.5945 23.4873 28.4945 23.4491 28.4183 23.3728C28.2657 23.2203 28.2657 22.973 28.4183 22.8204C29.0542 22.1845 29.8996 21.8343 30.799 21.8343C31.6982 21.8343 32.5436 22.1845 33.1796 22.8205V22.8205Z" fill="white"/>
<path d="M18 36.3491C18 36.7901 18.1717 37.2047 18.4835 37.5165C18.7954 37.8283 19.2099 38 19.6509 38C20.0919 38 20.5064 37.8283 20.8182 37.5165L25.512 32.8227C25.7275 32.9469 25.9691 33.0093 26.2109 33.0093C26.5691 33.0093 26.9273 32.8729 27.2 32.6002L27.975 31.8252C28.8425 32.1964 29.7971 32.4023 30.7989 32.4023C34.7696 32.4023 38 29.1719 38 25.2012C38 21.9342 35.7966 19.0709 32.6416 18.2381C32.4332 18.183 32.2193 18.3075 32.1642 18.5161C32.1091 18.7247 32.2336 18.9384 32.4422 18.9935C35.2546 19.7359 37.2188 22.2885 37.2188 25.2012C37.2188 28.7411 34.3388 31.621 30.7989 31.621C27.2589 31.621 24.379 28.7411 24.379 25.2012C24.379 22.2886 26.3431 19.736 29.1554 18.9935C29.3639 18.9384 29.4884 18.7247 29.4333 18.5161C29.3782 18.3075 29.1645 18.1832 28.9559 18.2381C25.8011 19.071 23.5977 21.9343 23.5977 25.2012C23.5977 26.2029 23.8036 27.1575 24.1748 28.025L23.3998 28.8C22.943 29.2568 22.869 29.9533 23.1772 30.488L18.4835 35.1818C18.1717 35.4936 18 35.9082 18 36.3491ZM25.7742 32.0478L23.9523 30.2259C23.7114 29.9851 23.7114 29.5932 23.9523 29.3525L24.542 28.7627C25.1827 29.884 26.1161 30.8173 27.2373 31.458L26.6476 32.0478C26.4068 32.2886 26.015 32.2886 25.7742 32.0478V32.0478ZM18.7812 36.3491C18.7812 36.1169 18.8717 35.8985 19.036 35.7342L23.6959 31.0743L24.9257 32.3042L20.2658 36.9641C20.1016 37.1283 19.8832 37.2188 19.6509 37.2188C19.4186 37.2188 19.2002 37.1283 19.036 36.9641C18.8717 36.7998 18.7812 36.5814 18.7812 36.3491V36.3491Z" fill="white"/>
<path d="M30.7988 18.7812C30.6961 18.7812 30.5953 18.7395 30.5227 18.6668C30.45 18.5941 30.4082 18.4934 30.4082 18.3906C30.4082 18.2879 30.45 18.1871 30.5227 18.1145C30.5953 18.0418 30.6961 18 30.7988 18C30.9016 18 31.0023 18.0418 31.075 18.1145C31.1477 18.1871 31.1895 18.2879 31.1895 18.3906C31.1895 18.4934 31.1477 18.5941 31.075 18.6668C31.0023 18.7395 30.9016 18.7812 30.7988 18.7812Z" fill="white"/>
</g>
</g>
<defs>
<clipPath id="clip0_8_32">
<rect width="20" height="20" fill="white" transform="translate(18 18)"/>
</clipPath>
<clipPath id="clip1_8_32">
<rect width="20" height="20" fill="white" transform="translate(18 18)"/>
</clipPath>
</defs>
</svg>
